#!OML:ASF H:\Punching\Project 1\Capture day 1\Session 1\female.ASF
:FULLY-SPECIFIED
:DEGREES
1
root -0.297998 14.8999 -2.1806 9.78552 1.54843 0.527758
lowerback 4.19259 -2.38448 -0.386785
upperback -5.98338 -3.18686 0.781442
thorax -8.577 -1.50967 1.40756
lowerneck -10.5297 -10.0025 -4.80291
upperneck 23.7707 -12.8275 -1.2936
head 9.456 -6.56605 -1.11519
rclavicle 1.03927e-014 -3.57812e-015
rhumerus 37.2623 10.5536 -61.6937
rradius 66.1408
rwrist 1.63654
rhand 30.6592 -35.6066
rfingers 7.12502
rthumb 54.2986 -54.2407
lclavicle 1.03927e-014 -3.57812e-015
lhumerus 28.3393 -5.0132 57.3287
lradius 79.421
lwrist -12.7726
lhand 33.1613 25.212
lfingers 7.12502
lthumb 56.5244 42.1874
rfemur -30.9548 -7.17624 16.6555
rtibia 52.5485
rfoot -28.3315 -9.43327
rtoes -10.8936
lfemur -31.9445 1.96962 -17.4505
ltibia 50.3638
lfoot -24.1096 6.94595
ltoes -11.7662
2
root -0.297309 14.8985 -2.17312 9.79122 1.50597 0.517868
lowerback 4.14401 -2.38448 -0.390954
upperback -5.99269 -3.18614 0.795031
thorax -8.55751 -1.50887 1.42194
lowerneck -10.4958 -9.97805 -4.81552
upperneck 23.7306 -12.7988 -1.26378
head 9.43819 -6.55124 -1.09646
rclavicle 9.0975e-015 -5.96354e-016
rhumerus 37.2598 10.549 -61.7183
rradius 66.0834
rwrist 1.48985
rhand 30.7133 -35.7315
rfingers 7.12502
rthumb 54.3471 -54.3321
lclavicle 9.0975e-015 -5.96354e-016
lhumerus 28.3386 -4.96982 57.3541
lradius 79.3976
lwrist -12.736
lhand 33.3336 25.3018
lfingers 7.12502
lthumb 56.6765 42.1542
rfemur -30.9499 -7.15767 16.6567
rtibia 52.5738
rfoot -28.3707 -9.37587
rtoes -10.817
lfemur -31.9344 1.99115 -17.4413
ltibia 50.4113
lfoot -24.143 6.96431
ltoes -11.7729
3
root -0.295676 14.897 -2.16527 9.79046 1.4837 0.519603
lowerback 4.10091 -2.38898 -0.376365
upperback -5.98644 -3.19195 0.78084
thorax -8.52679 -1.51365 1.39711
lowerneck -10.5801 -9.94312 -4.77426
upperneck 23.8028 -12.7602 -1.24731
head 9.47649 -6.52663 -1.10034
rclavicle 6.26482e-015 -4.96962e-015
rhumerus 37.2709 10.5 -61.779
rradius 66.0557
rwrist 1.31528
rhand 30.9357 -36.0811
rfingers 7.12502
rthumb 54.5462 -54.5431
lclavicle 6.26482e-015 -4.96962e-015
lhumerus 28.3597 -4.94252 57.3505
lradius 79.3588
lwrist -12.6116
lhand 33.5043 25.4084
lfingers 7.12502
lthumb 56.8268 42.1377
rfemur -30.937 -7.18859 16.6476
rtibia 52.615
rfoot -28.4024 -9.33947
rtoes -10.9377
lfemur -31.9145 1.97303 -17.4408
ltibia 50.4724
lfoot -24.1896 6.96509
ltoes -11.7684
4
root -0.295454 14.8947 -2.15923 9.80595 1.46861 0.529425
lowerback 4.07546 -2.39889 -0.396556
upperback -6.02039 -3.20646 0.789196
thorax -8.54686 -1.51893 1.41867
lowerneck -10.4868 -9.9343 -4.79243
upperneck 23.7149 -12.7548 -1.21452
head 9.43189 -6.52399 -1.0772
rclavicle -3.26442e-014 -2.18663e-015
rhumerus 37.2306 10.4975 -61.8275
rradius 66.0191
rwrist 1.21573
rhand 31.0525 -36.008
rfingers 7.12502
rthumb 54.6506 -54.3964
lclavicle -3.26442e-014 -2.18663e-015
lhumerus 28.3313 -4.91335 57.3717
lradius 79.3351
lwrist -12.5993
lhand 33.6893 25.4952
lfingers 7.12502
lthumb 56.9896 42.0898
rfemur -30.9601 -7.20861 16.635
rtibia 52.6499
rfoot -28.4131 -9.30758
rtoes -10.9715
lfemur -31.9259 1.96015 -17.4486
ltibia 50.5143
lfoot -24.2053 6.99976
ltoes -11.9066
5
root -0.304501 14.8906 -2.15273 9.81879 1.28787 0.435741
lowerback 4.02366 -2.34665 -0.467172
upperback -6.02956 -3.1385 0.834791
thorax -8.52145 -1.4798 1.49604
lowerneck -10.4551 -9.91488 -4.78836
upperneck 23.6991 -12.739 -1.1777
head 9.42246 -6.51292 -1.06127
rclavicle 6.5397e-015 -4.17448e-015
rhumerus 37.2034 10.4798 -61.8699
rradius 65.9755
rwrist 1.10509
rhand 31.2012 -36.1474
rfingers 7.12502
rthumb 54.7836 -54.4415
lclavicle 6.5397e-015 -4.17448e-015
lhumerus 28.3189 -4.89769 57.3706
lradius 79.3381
lwrist -12.5293
lhand 33.8142 25.6142
lfingers 7.12502
lthumb 57.0995 42.117
rfemur -31.0387 -6.94319 16.7635
rtibia 52.6873
rfoot -28.3719 -9.36367
rtoes -10.9046
lfemur -31.9431 2.15219 -17.3218
ltibia 50.5671
lfoot -24.2217 6.9893
ltoes -11.9976
6
root -0.293559 14.8927 -2.14362 9.7729 1.41202 0.515399
lowerback 4.02704 -2.38054 -0.352739
upperback -6.00198 -3.18082 0.750924
thorax -8.50347 -1.51121 1.34804
lowerneck -10.601 -9.92633 -4.70334
upperneck 23.7574 -12.767 -1.17585
head 9.46406 -6.51634 -1.08746
rclavicle 2.40638e-014 8.15017e-015
rhumerus 37.1853 10.3666 -61.9236
rradius 65.9454
rwrist 1.03975
rhand 31.3176 -36.2684
rfingers 7.12502
rthumb 54.8874 -54.4881
lclavicle 2.40638e-014 8.15017e-015
lhumerus 28.4221 -4.91938 57.3715
lradius 79.308
lwrist -12.4756
lhand 34.0041 25.7065
lfingers 7.12502
lthumb 57.2663 42.0685
rfemur -30.9162 -7.25346 16.6354
rtibia 52.7152
rfoot -28.4498 -9.20232
rtoes -11.1087
lfemur -31.8433 1.95044 -17.4341
ltibia 50.5839
lfoot -24.2419 7.05245
ltoes -11.9575
7
root -0.292951 14.8918 -2.13474 9.75715 1.36427 0.543966
lowerback 4.01118 -2.39228 -0.413913
upperback -6.05241 -3.20024 0.772857
thorax -8.544 -1.51549 1.40829
lowerneck -10.4472 -9.88291 -4.76878
upperneck 23.7246 -12.7063 -1.15301
head 9.42959 -6.49369 -1.05264
rclavicle 2.66931e-014 3.37934e-015
rhumerus 37.127 10.4524 -61.9441
rradius 65.9139
rwrist 0.947506
rhand 31.4758 -36.3893
rfingers 7.12502
rthumb 55.0286 -54.5073
lclavicle 2.66931e-014 3.37934e-015
lhumerus 28.2693 -4.8834 57.4311
lradius 79.3117
lwrist -12.4578
lhand 34.1335 25.7323
lfingers 7.12502
lthumb 57.3798 41.9975
rfemur -30.8903 -7.26274 16.5951
rtibia 52.7468
rfoot -28.4753 -9.15231
rtoes -11.1492
lfemur -31.7874 1.95422 -17.4659
ltibia 50.6133
lfoot -24.2799 7.08802
ltoes -12.0636
